<html>
<head>
<meta charset="UTF-8">
<meta name="viewport" content="width=device-width, initial-scale=1.0"/>

<style>
.comment
{
    padding-left: 20px;
    margin-top: 4px;
    margin-right: 4px;
    margin-bottom: 4px;
    border: 2px #000 solid;
}
.submission
{
    border: 4px #00f solid;
    padding-left: 20px;
}
.hidden
{
    display: none;
}
</style>
</head>
<body><div class="submission" id="t3_7fc4un">
    <p class="userinfo">
        <a href="https://www.reddit.com/u/JoeOnPC">JoeOnPC</a>
        <span class="score"> | 11 points</span>
        <span class="timestamp"> | Nov 25 2017 01:58:43</span>
    </p>
    <strong>[MUSIC] Noel Gallagher's High Flying Birds - Who Built The Moon? [Deluxe Package CD] | 2017 | AAC 141kbps [50.988MiB] | FLAC 922kbps [324.168MiB]</strong>
    <p><p>Who Built the Moon? is the third studio album by English rock band Noel Gallagher's High Flying Birds.</p>
<p>Use <a href="https://www.base64encode.org/">base64decode</a> to decode the following links.</p>
<pre><code>Track listing:
1.  Fort Knox                                              3:57
2.  Holy Mountain                                          3:54
3.  Keep on Reaching                                       3:24
4.  It's a Beautiful World                                 5:17
5.  She Taught Me How to Fly                               5:02
6.  Be Careful What You Wish For                           5:40
7.  Black &amp; White Sunshine                                 3:41
8.  Interlude (Wednesday Pt. 1)                            2:10
9.  If Love Is the Law                                     3:25
10. The Man Who Built the Moon                             4:28
11. End Credits (Wednesday Pt. 2)                          2:27

Bonus Tracks:
12. Dead in the Water (Live at RTÉ 2FM Stuios, Dublin)      5:21

Total length:                                             48:46
</code></pre>
<p><a href="http://textuploader.com/dqo7d">Technical Data</a> - AAC 141kbps [50.988MiB]</p>
<p><a href="http://textuploader.com/dqo2z">Technical Data</a> - FLAC 922kbps [324.168MiB]</p>
<p>Link | Key
---|---
aHR0cHM6Ly9tZWdhLm56LyNGITRYcEVYU29B | IUZlSTc2Z1lFVUdMWjZzUHBqX2U5T0E=</p>
<p>Miscellaneous Technical Data:</p>
<pre><code>Exact Audio Copy V1.3 from 2. September 2016

EAC extraction logfile from 24. November 2017, 23:39

Noel Gallagher's High Flying Birds / Who Built The Moon? (Deluxe Package CD)

Used drive  : TSSTcorpDVD+-RW TS-H653A   Adapter: 1  ID: 0

Read mode               : Secure
Utilize accurate stream : Yes
Defeat audio cache      : No
Make use of C2 pointers : Yes

Combined read/write offset correction       : 0
Overread into Lead-In and Lead-Out          : No
Fill up missing offset samples with silence : Yes
Delete leading and trailing silent blocks   : No
Null samples used in CRC calculations       : Yes
Used interface                              : Native Win32 interface for Win NT &amp; 2000
Gap handling                                : Not detected, thus appended to previous track

Used output format : Internal WAV Routines
Sample format      : 44.100 Hz; 16 Bit; Stereo


TOC of the extracted CD

 Track |   Start  |  Length  | Start sector | End sector 
---------------------------------------------------------
    1  |  0:00.00 |  3:58.73 |         0    |    17922   
    2  |  3:58.73 |  3:54.66 |     17923    |    35538   
    3  |  7:53.64 |  3:24.64 |     35539    |    50902   
    4  | 11:18.53 |  5:17.22 |     50903    |    74699   
    5  | 16:36.00 |  5:02.15 |     74700    |    97364   
    6  | 21:38.15 |  5:40.32 |     97365    |   122896   
    7  | 27:18.47 |  3:41.44 |    122897    |   139515   
    8  | 31:00.16 |  2:10.36 |    139516    |   149301   
    9  | 33:10.52 |  3:25.22 |    149302    |   164698   
   10  | 36:35.74 |  4:28.34 |    164699    |   184832   
   11  | 41:04.33 |  2:32.29 |    184833    |   196261   
   12  | 43:36.62 |  5:23.52 |    196262    |   220538


Track  1

 Filename D:\Music\Noel Gallagher's High Flying Birds\01. Fort Knox.wav

 Peak level 97.7 %
 Extraction speed 5.6 X
 Track quality 100.0 %
 Copy CRC 8E188DA4
 Copy OK

Track  2

 Filename D:\Music\Noel Gallagher's High Flying Birds\02. Holy Mountain.wav

 Peak level 97.7 %
 Extraction speed 6.1 X
 Track quality 99.9 %
 Copy CRC CE134C2C
 Copy OK

Track  3

 Filename D:\Music\Noel Gallagher's High Flying Birds\03. Keep On Reaching.wav

 Peak level 98.9 %
 Extraction speed 6.6 X
 Track quality 100.0 %
 Copy CRC AED1CD7F
 Copy OK

Track  4

 Filename D:\Music\Noel Gallagher's High Flying Birds\04. It's A Beautiful World.wav

 Peak level 98.8 %
 Extraction speed 7.4 X
 Track quality 100.0 %
 Copy CRC 2BE8A9B6
 Copy OK

Track  5

 Filename D:\Music\Noel Gallagher's High Flying Birds\05. She Taught Me How To Fly.wav

 Peak level 98.8 %
 Extraction speed 8.0 X
 Track quality 100.0 %
 Copy CRC FBD0C401
 Copy OK

Track  6

 Filename D:\Music\Noel Gallagher's High Flying Birds\06. Be Careful What You Wish For.wav

 Peak level 98.8 %
 Extraction speed 8.6 X
 Track quality 100.0 %
 Copy CRC 98CF96AB
 Copy OK

Track  7

 Filename D:\Music\Noel Gallagher's High Flying Birds\07. Black &amp; White Sunshine.wav

 Peak level 98.8 %
 Extraction speed 9.0 X
 Track quality 100.0 %
 Copy CRC 83B9D180
 Copy OK

Track  8

 Filename D:\Music\Noel Gallagher's High Flying Birds\08. Interlude (Wednesday Part 1).wav

 Peak level 98.8 %
 Extraction speed 6.5 X
 Track quality 100.0 %
 Copy CRC 3E987642
 Copy OK

Track  9

 Filename D:\Music\Noel Gallagher's High Flying Birds\09. If Love Is The Law.wav

 Peak level 98.8 %
 Extraction speed 8.8 X
 Track quality 100.0 %
 Copy CRC 23EB6433
 Copy OK

Track 10

 Filename D:\Music\Noel Gallagher's High Flying Birds\10. The Man Who Built The Moon.wav

 Peak level 99.7 %
 Extraction speed 9.0 X
 Track quality 100.0 %
 Copy CRC D28526BF
 Copy OK

Track 11

 Filename D:\Music\Noel Gallagher's High Flying Birds\11. End Credits (Wednesday Part 2).wav

 Peak level 98.8 %
 Extraction speed 8.9 X
 Track quality 100.0 %
 Copy CRC 96BE1033
 Copy OK

Track 12

 Filename D:\Music\Noel Gallagher's High Flying Birds\12. Dead In The Water (Live at RTÉ 2FM Studios, Dublin) [Bonus Track].wav

 Peak level 97.7 %
 Extraction speed 10.3 X
 Track quality 100.0 %
 Copy CRC 14F46C6F
 Copy OK

No errors occurred

End of status report

---- CUETools DB Plugin V2.1.6

[CTDB TOCID: L7adJbntEbX0PuC92skkIVe072M-] found
Submit result: L7adJbntEbX0PuC92skkIVe072M- has been confirmed
Track | CTDB Status
  1   | (9/9) Accurately ripped
  2   | (9/9) Accurately ripped
  3   | (9/9) Accurately ripped
  4   | (9/9) Accurately ripped
  5   | (9/9) Accurately ripped
  6   | (9/9) Accurately ripped
  7   | (9/9) Accurately ripped
  8   | (9/9) Accurately ripped
  9   | (9/9) Accurately ripped
 10   | (9/9) Accurately ripped
 11   | (9/9) Accurately ripped
 12   | (9/9) Accurately ripped


==== Log checksum A6D0DCAE07F1BCD4B9AAF06761AF4752169C341C24EEDF6D52241A376CBC8C39 ====
</code></pre></p>
    <p class="toolbar">
        <a href="https://www.reddit.com/r/megalinks/comments/7fc4un">permalink</a>
    </p>
</div>
<div class="comment" id="t1_dqaxdec">
    <p class="userinfo">
        <a
        class="toggle_hide_button"
        href="javascript:void(0)"
        onclick="toggle_collapse(this.parentElement.parentElement)">[-]
        </a>
        <a href="https://www.reddit.com/u/gurpreetshanky">gurpreetshanky</a>
        <span class="score"> | 2 points</span>
        <span class="timestamp"> | Nov 25 2017 03:16:27</span>
    </p>
    <div class="collapsible">
        <p>Thanks for this.My favorite songwriter.</p>
        <p class="toolbar">
            <a href="https://www.reddit.com/r/megalinks/comments/7fc4un/_/dqaxdec">permalink</a>
        </p>
        
    </div>
</div>
</body>

<script>
function toggle_collapse(comment_div)
{
    var button = comment_div.getElementsByClassName("toggle_hide_button")[0];
    var collapsible = comment_div.getElementsByClassName("collapsible")[0];
    if (collapsible.classList.contains("hidden"))
    {
        collapsible.classList.remove("hidden");
        button.innerText = "[-]";
    }
    else
    {
        collapsible.classList.add("hidden");
        button.innerText = "[+]";
    }
}
</script>
</html>
